<?xml version="1.0" encoding="utf-8"?>
<!-- Generator: Adobe Illustrator 24.1.1, SVG Export Plug-In . SVG Version: 6.00 Build 0)  -->
<svg version="1.1" id="Calque_1" xmlns="http://www.w3.org/2000/svg" xmlns:xlink="http://www.w3.org/1999/xlink" x="0px" y="0px"
	 viewBox="0 0 2834.65 1700.79" style="enable-background:new 0 0 2834.65 1700.79;" xml:space="preserve">
<style type="text/css">
	.st0{fill:none;stroke:#FF0000;stroke-width:0.0283;stroke-miterlimit:10;}
	.st1{fill:none;}
	.st2{font-family:'Moon2.0-Bold';}
	.st3{font-size:98px;}
</style>
<path class="st0" d="M358.3,531.44l0,117.6c0,2.8,0.83,5.53,2.38,7.86l65.94,98.91c3.54,5.31,10.19,7.6,16.25,5.59l652.92-216.14
	c6.06-2.01,12.71,0.28,16.25,5.59l42.35,63.53c7.78,11.67,25.97,6.16,25.97-7.86v-75.08c0-7.83-6.35-14.17-14.17-14.17l-392.6,0
	l0,70.87h-8.5v-70.87l-392.6,0C364.64,517.27,358.3,523.61,358.3,531.44z"/>
<g>
	<g>
		<polygon class="st1" points="998.98,727.43 973.5,713.23 948.26,726.32 948.26,755.84 973.5,769.15 973.5,740.53 		"/>
		<polygon class="st1" points="948.26,699.7 973.5,713.23 998.26,700.58 974.75,688.33 972.5,689.52 972.5,687.15 972.3,687.05 
			972.5,686.94 972.5,660.67 947.02,673.77 947.02,700.33 		"/>
		<polygon class="st1" points="872.05,713.9 846.57,727.43 871.81,740.53 871.81,770.04 897.29,756.5 897.29,727.21 		"/>
		<polygon class="st1" points="922.77,743.19 897.29,756.5 897.29,786.46 922.77,773.15 922.77,772.48 948.02,785.57 948.26,755.84 
			922.77,742.3 		"/>
		<path class="st1" d="M391.81,782.58l-0.24-0.22l-25.24-14.2v20.68c1.86,0.9,3.94,1.42,6.14,1.42h44.58v-21.21L391.81,782.58z"/>
		<polygon class="st1" points="433.22,790.25 442.54,790.25 442.54,785.46 		"/>
		<polygon class="st1" points="1023.98,687.27 1023.22,687.66 1023.22,689.71 1021.29,688.66 998.26,700.58 1024.46,713.9 
			1048.71,701.11 1048.71,673.73 1023.22,660.64 1023.22,686.87 		"/>
		<polygon class="st1" points="366.33,739.53 391.81,726.43 366.33,712.23 358.3,716.4 358.3,763.92 366.33,768.15 		"/>
		<polygon class="st1" points="492.65,790.25 501.76,790.25 492.65,785.57 		"/>
		<polygon class="st1" points="1074.19,688.16 1099.43,674.62 1099.43,645.11 1074.19,658.64 1073.95,658.42 1048.71,644.22 
			1048.71,673.73 1073.95,687.94 		"/>
		<polygon class="st1" points="543.62,783.58 543.38,783.36 518.13,769.15 518.13,790.25 568.86,790.25 568.86,770.04 		"/>
		<polygon class="st1" points="896.29,643.36 896.29,614.74 904.76,610.39 871.05,621.72 871.05,630.05 		"/>
		<polygon class="st1" points="846.57,783.58 846.32,783.36 821.08,769.15 821.08,790.25 871.81,790.25 871.81,770.04 		"/>
		<polygon class="st1" points="737.5,790.25 744.87,790.25 744.87,786.46 		"/>
		<polygon class="st1" points="643.42,699.7 668.66,713.23 693.43,700.58 669.16,687.93 668.67,688.19 668.67,687.68 667.55,687.09 
			643.19,695.24 643.19,699.82 		"/>
		<polygon class="st1" points="795.6,790.25 804.7,790.25 795.6,785.57 		"/>
		<polygon class="st1" points="718.4,687.65 693.43,700.58 719.63,713.9 744.87,700.58 744.87,672.21 731.93,665.56 719.39,669.75 
			719.39,688.19 		"/>
		<polygon class="st1" points="889.91,790.25 897.29,790.25 897.29,786.46 		"/>
		<polygon class="st1" points="617.94,774.13 617.94,772.48 619.53,773.3 619.83,773.15 619.83,773.46 643.18,785.57 643.42,755.84 
			619.72,743.25 594.34,756.5 594.34,786.46 		"/>
		<polygon class="st1" points="518.13,769.15 518.13,740.53 537.5,730.58 492.89,745.49 492.89,755.84 		"/>
		<polygon class="st1" points="948.02,790.25 957.12,790.25 948.02,785.57 		"/>
		<polygon class="st1" points="568.86,770.04 594.34,756.5 594.34,727.21 576.19,717.64 544.9,728.1 568.86,740.53 		"/>
		<polygon class="st1" points="586.96,790.25 594.34,790.25 594.34,786.46 		"/>
		<polygon class="st1" points="694.15,783.58 693.91,783.36 668.66,769.15 668.66,790.25 719.39,790.25 719.39,770.04 		"/>
		<polygon class="st1" points="668.66,740.53 694.15,727.43 668.66,713.23 643.42,726.32 643.42,755.84 668.66,769.15 		"/>
		<polygon class="st1" points="643.18,790.25 652.29,790.25 643.18,785.57 		"/>
		<polygon class="st1" points="1124.92,631.57 1124.92,661.53 1150.4,648.21 1150.4,648.44 1175.48,661.45 1175.6,647.07 
			1159.68,623.19 1150.4,618.26 		"/>
		<polygon class="st1" points="947.02,644.25 972.5,630.72 972.5,601.42 956.51,592.99 925.31,603.48 947.02,614.74 		"/>
		<path class="st1" d="M1098.5,562.69l-25.03,12.96l26.2,13.31l25.08-13.23v-4.93l-12.7-19.05c-2.87-4.31-7.79-6.63-12.78-6.28
			v17.63L1098.5,562.69z"/>
		<polygon class="st1" points="1023.46,574.76 1048.71,588.3 1073.47,575.65 1048.98,562.88 1047.87,563.48 1047.87,562.3 
			1047.84,562.29 1022.38,570.85 1022.38,575.32 		"/>
		<polygon class="st1" points="795.6,647.08 778.14,652.95 777.83,653.12 777.83,682.63 795.6,673.1 		"/>
		<polygon class="st1" points="845.56,647.22 845.56,646.69 846.07,646.95 846.56,646.69 846.56,647.21 870.81,659.79 
			871.05,630.05 861.44,624.95 821.08,638.51 821.08,660.01 		"/>
		<polygon class="st1" points="1175.48,688.54 1176.24,688.93 1175.48,689.33 1175.48,690.52 1174.36,689.91 1150.52,702.25 
			1176.72,715.56 1180.35,713.65 1180.35,663.95 1175.48,661.45 		"/>
		<polygon class="st1" points="769.32,685.97 769.32,656.46 765.53,654.32 744.87,661.23 744.87,672.21 		"/>
		<polygon class="st1" points="1100.27,790.25 1106.14,790.25 1100.27,787.24 		"/>
		<polygon class="st1" points="1042.33,790.25 1049.71,790.25 1049.71,786.46 		"/>
		<polygon class="st1" points="998.98,783.58 998.74,783.36 973.5,769.15 973.5,790.25 1024.22,790.25 1024.22,770.04 		"/>
		<path class="st1" d="M1151.24,785.24l-0.24-0.22l-25.24-14.2v19.44h40.42c4.07,0,7.73-1.72,10.31-4.47V771.7L1151.24,785.24z"/>
		<polygon class="st1" points="1151.24,729.1 1176.48,742.19 1176.48,771.7 1180.35,769.65 1180.35,717.47 1176.72,715.56 		"/>
		<polygon class="st1" points="921.53,687.08 921.77,687.3 947.02,673.77 947.02,644.25 921.77,657.79 921.53,657.57 896.29,643.36 
			896.29,672.88 		"/>
		<polygon class="st1" points="1048.71,615.59 1074.19,602.5 1048.71,588.3 1023.46,601.39 1023.46,630.91 1048.71,644.22 		"/>
		<polygon class="st1" points="414.2,738.05 402.63,720.69 391.81,726.43 		"/>
		<polygon class="st1" points="871.57,687.27 870.81,687.66 870.81,688.85 869.68,688.24 845.84,700.58 872.05,713.9 896.29,701.11 
			896.29,672.88 870.81,659.79 870.81,686.87 		"/>
		<path class="st1" d="M468.02,772.15v0.65l24.63,12.78l0.24-29.74l-11.95-6.35l-38.06,12.73c-0.11,0.04-0.23,0.06-0.35,0.1v23.15
			L468.02,772.15z"/>
		<polygon class="st1" points="997.98,647.36 997.98,647.55 1023.22,660.64 1023.46,630.91 997.98,617.37 997.98,617.4 
			972.5,630.72 972.5,660.67 		"/>
		<path class="st1" d="M431.69,761.27c-2.01-1.07-3.77-2.64-5.1-4.63l-9.54-14.31v26.72L431.69,761.27z"/>
		<polygon class="st1" points="1100.51,727.99 1100.51,757.5 1125.76,770.82 1125.76,742.19 1151.24,729.1 1125.76,714.9 		"/>
		<polygon class="st1" points="1099.43,615.59 1099.43,645.11 1124.92,631.57 1124.92,602.28 1099.67,588.97 1074.19,602.5 		"/>
		<polygon class="st1" points="1075.03,743.27 1049.71,756.5 1049.71,786.46 1075.19,773.15 1075.19,774.23 1100.27,787.24 
			1100.51,757.5 1075.03,743.97 		"/>
		<polygon class="st1" points="1099.43,701.91 1100.51,701.36 1125.76,714.9 1150.52,702.25 1126.32,689.63 1124.92,690.38 
			1124.92,688.9 1124.55,688.71 1124.92,688.52 1124.92,661.53 1099.43,674.62 		"/>
		<path class="st1" d="M366.33,712.23l22.87-11.68l-1.99-2.99l-19.2-10.01c-5.36,1.77-9.72,6.58-9.72,13.45v6.93L366.33,712.23z"/>
		<polygon class="st1" points="1024.46,713.9 998.98,727.43 1024.22,740.53 1024.22,770.04 1049.71,756.5 1049.71,727.21 		"/>
		<polygon class="st1" points="719.39,740.53 719.39,770.04 744.87,756.5 744.87,727.21 719.63,713.9 694.15,727.43 		"/>
		<polygon class="st1" points="770.36,773.15 770.36,772.48 795.6,785.57 795.84,755.84 770.36,742.3 770.36,743.19 744.87,756.5 
			744.87,786.46 		"/>
		<polygon class="st1" points="821.08,740.53 846.57,727.43 821.08,713.23 795.84,726.32 795.84,755.84 821.08,769.15 		"/>
		<polygon class="st1" points="822.21,688.26 821.08,688.86 821.08,687.67 819.88,687.05 821.08,686.42 821.08,660.01 795.6,673.1 
			795.6,699.82 795.84,699.7 821.08,713.23 845.84,700.58 		"/>
		<polygon points="1125.76,714.9 1100.51,701.36 1099.43,701.91 1099.43,674.62 1074.19,688.16 1073.95,687.94 1048.71,673.73 
			1048.71,701.11 1024.46,713.9 1049.71,727.21 1049.71,756.5 1075.03,743.27 1075.03,743.97 1100.51,757.5 1100.51,727.99 		"/>
		<polygon points="1151.24,729.1 1176.72,715.56 1150.52,702.25 1125.76,714.9 		"/>
		<path d="M1176.48,785.78c2.39-2.54,3.86-5.95,3.86-9.7v-6.43l-3.86,2.05V785.78z"/>
		<polygon points="1125.76,770.82 1151,785.02 1151.24,785.24 1176.48,771.7 1176.48,742.19 1151.24,729.1 1125.76,742.19 		"/>
		<polygon points="1100.51,757.5 1100.27,787.24 1106.14,790.25 1125.76,790.25 1125.76,770.82 		"/>
		<polygon points="1048.71,673.73 1048.71,644.22 1023.46,630.91 1023.22,660.64 		"/>
		<polygon points="1074.19,658.64 1099.43,645.11 1099.43,615.59 1074.19,602.5 1048.71,615.59 1048.71,644.22 1073.95,658.42 		"/>
		<polygon points="1099.43,674.62 1124.92,661.53 1124.92,631.57 1099.43,645.11 		"/>
		<polygon points="1099.67,588.97 1073.47,575.65 1048.71,588.3 1074.19,602.5 		"/>
		<polygon points="1099.67,588.97 1124.92,602.28 1124.92,631.57 1150.4,618.26 1159.68,623.19 1124.76,570.81 1124.76,575.73 		"/>
		<path d="M1047.87,563.48l1.11-0.59l24.49,12.77l25.03-12.96l0.77,0.42v-17.63c-1.18,0.08-2.36,0.31-3.53,0.7l-47.91,16.1
			l0.03,0.01V563.48z"/>
		<polygon points="1124.55,688.71 1124.92,688.9 1124.92,690.38 1126.32,689.63 1150.52,702.25 1174.36,689.91 1175.48,690.52 
			1175.48,689.33 1176.24,688.93 1175.48,688.54 1175.48,661.45 1150.4,648.44 1150.4,648.21 1124.92,661.53 1124.92,688.52 		"/>
		<path d="M1180.35,663.95v-5.47c0-2.8-0.83-5.53-2.38-7.86l-2.37-3.55l-0.12,14.38L1180.35,663.95z"/>
		<polygon points="1180.35,717.47 1180.35,713.65 1176.72,715.56 		"/>
		<polygon points="948.26,755.84 948.02,785.57 957.12,790.25 973.5,790.25 973.5,769.15 		"/>
		<polygon points="1049.71,756.5 1024.22,770.04 1024.22,790.25 1042.33,790.25 1049.71,786.46 		"/>
		<polygon points="922.77,772.48 922.77,773.15 897.29,786.46 897.29,790.25 948.02,790.25 948.02,785.57 		"/>
		<polygon points="1075.19,774.23 1075.19,773.15 1049.71,786.46 1049.71,790.25 1100.27,790.25 1100.27,787.24 		"/>
		<polygon points="973.5,713.23 998.98,727.43 1024.46,713.9 998.26,700.58 		"/>
		<polygon points="973.5,713.23 948.26,699.7 947.02,700.33 947.02,673.77 921.77,687.3 921.53,687.08 896.29,672.88 896.29,701.11 
			872.05,713.9 897.29,727.21 897.29,756.5 922.77,743.19 922.77,742.3 948.26,755.84 948.26,726.32 		"/>
		<polygon points="998.98,727.43 973.5,740.53 973.5,769.15 998.74,783.36 998.98,783.58 1024.22,770.04 1024.22,740.53 		"/>
		<polygon points="896.29,643.36 871.05,630.05 870.81,659.79 896.29,672.88 		"/>
		<polygon points="972.5,630.72 997.98,617.4 997.98,617.37 1023.46,630.91 1023.46,601.39 1048.71,588.3 1023.46,574.76 
			1022.38,575.32 1022.38,570.85 956.51,592.99 972.5,601.42 		"/>
		<polygon points="896.29,643.36 921.53,657.57 921.77,657.79 947.02,644.25 947.02,614.74 925.31,603.48 904.76,610.39 
			896.29,614.74 		"/>
		<polygon points="972.5,660.67 972.5,630.72 947.02,644.25 947.02,673.77 		"/>
		<polygon points="972.3,687.05 972.5,687.15 972.5,689.52 974.75,688.33 998.26,700.58 1021.29,688.66 1023.22,689.71 
			1023.22,687.66 1023.98,687.27 1023.22,686.87 1023.22,660.64 997.98,647.55 997.98,647.36 972.5,660.67 972.5,686.94 		"/>
		<polygon points="819.88,687.05 821.08,687.67 821.08,688.86 822.21,688.26 845.84,700.58 869.68,688.24 870.81,688.85 
			870.81,687.66 871.57,687.27 870.81,686.87 870.81,659.79 846.56,647.21 846.56,646.69 846.07,646.95 845.56,646.69 
			845.56,647.22 821.08,660.01 821.08,686.42 		"/>
		<polygon points="872.05,713.9 845.84,700.58 821.08,713.23 846.57,727.43 		"/>
		<polygon points="846.57,727.43 821.08,740.53 821.08,769.15 846.32,783.36 846.57,783.58 871.81,770.04 871.81,740.53 		"/>
		<polygon points="744.87,700.58 719.63,713.9 744.87,727.21 744.87,756.5 770.36,743.19 770.36,742.3 795.84,755.84 795.84,726.32 
			821.08,713.23 795.84,699.7 795.6,699.82 795.6,673.1 777.83,682.63 777.83,723.92 769.32,723.92 769.32,685.97 744.87,672.21 		
			"/>
		<polygon points="770.36,772.48 770.36,773.15 744.87,786.46 744.87,790.25 795.6,790.25 795.6,785.57 		"/>
		<polygon points="795.84,755.84 795.6,785.57 804.7,790.25 821.08,790.25 821.08,769.15 		"/>
		<polygon points="897.29,756.5 871.81,770.04 871.81,790.25 889.91,790.25 897.29,786.46 		"/>
		<polygon points="871.05,621.72 861.44,624.95 871.05,630.05 		"/>
		<polygon points="821.08,660.01 821.08,638.51 795.6,647.08 795.6,673.1 		"/>
		<polygon points="777.83,653.06 777.83,653.12 778.14,652.95 		"/>
		<polygon points="769.32,653.06 765.53,654.32 769.32,656.46 		"/>
		<polygon points="744.87,661.23 731.93,665.56 744.87,672.21 		"/>
		<polygon points="643.42,755.84 643.18,785.57 652.29,790.25 668.66,790.25 668.66,769.15 		"/>
		<polygon points="744.87,756.5 719.39,770.04 719.39,790.25 737.5,790.25 744.87,786.46 		"/>
		<polygon points="719.63,713.9 693.43,700.58 668.66,713.23 694.15,727.43 		"/>
		<polygon points="694.15,727.43 668.66,740.53 668.66,769.15 693.91,783.36 694.15,783.58 719.39,770.04 719.39,740.53 		"/>
		<polygon points="594.34,756.5 619.72,743.25 643.42,755.84 643.42,726.32 668.66,713.23 643.42,699.7 643.19,699.82 
			643.19,695.24 576.19,717.64 594.34,727.21 		"/>
		<polygon points="668.67,688.19 669.16,687.93 693.43,700.58 718.4,687.65 719.39,688.19 719.39,669.75 667.55,687.09 
			668.67,687.68 		"/>
		<polygon points="492.89,755.84 492.65,785.57 501.76,790.25 518.13,790.25 518.13,769.15 		"/>
		<polygon points="594.34,756.5 568.86,770.04 568.86,790.25 586.96,790.25 594.34,786.46 		"/>
		<polygon points="619.83,773.46 619.83,773.15 619.53,773.3 617.94,772.48 617.94,774.13 594.34,786.46 594.34,790.25 
			643.18,790.25 643.18,785.57 		"/>
		<polygon points="518.13,769.15 543.38,783.36 543.62,783.58 568.86,770.04 568.86,740.53 544.9,728.1 537.5,730.58 518.13,740.53 
					"/>
		<polygon points="366.33,739.53 366.33,768.15 391.57,782.36 391.81,782.58 417.05,769.04 417.05,742.32 414.2,738.05 
			391.81,726.43 		"/>
		<polygon points="468.02,772.8 468.02,772.15 442.54,785.46 442.54,790.25 492.65,790.25 492.65,785.57 		"/>
		<path d="M417.05,790.25h16.16l9.32-4.79v-23.15c-3.7,1.13-7.59,0.69-10.85-1.05l-14.64,7.78V790.25z"/>
		<path d="M358.3,763.92v12.16c0,5.62,3.28,10.47,8.03,12.76v-20.68L358.3,763.92z"/>
		<polygon points="492.89,745.49 480.94,749.49 492.89,755.84 		"/>
		<polygon points="391.81,726.43 402.63,720.69 389.2,700.55 366.33,712.23 		"/>
		<path d="M384.26,693.14c-3.97-5.96-10.65-7.43-16.25-5.58l19.2,10.01L384.26,693.14z"/>
		<polygon points="358.3,707.93 358.3,716.4 366.33,712.23 		"/>
	</g>
	<path class="st0" d="M1180.35,776.1V658.5c0-2.8-0.83-5.53-2.38-7.86l-65.91-98.86c-3.55-5.33-10.24-7.61-16.31-5.57L777.83,653.07
		l0,70.87h-8.5v-70.87L442.88,762.23c-6.07,2.03-12.74-0.26-16.29-5.58l-42.33-63.5c-7.78-11.67-25.97-6.16-25.97,7.86v75.08
		c0,7.83,6.35,14.17,14.17,14.17l793.7,0C1174,790.27,1180.35,783.92,1180.35,776.1z"/>
</g>
<text transform="matrix(-1 0 0 -1 556.2119 552.1357)" class="st2 st3">DL</text>
</svg>
